<svg width="1200" height="630" viewBox="0 0 1200 630" xmlns="http://www.w3.org/2000/svg" role="img" aria-labelledby="title desc">
  <title id="title">포트폴리오 히어로 섹션 플레이스홀더</title>
  <desc id="desc">밝은 그라디언트 배경 위에 카드와 그래프 모양 요소가 배치된 샘플 이미지</desc>
  <defs>
    <linearGradient id="bg" x1="0%" y1="0%" x2="100%" y2="100%">
      <stop offset="0%" stop-color="#f2f5ff" />
      <stop offset="100%" stop-color="#e2e6ff" />
    </linearGradient>
    <linearGradient id="accent" x1="0%" y1="0%" x2="0%" y2="100%">
      <stop offset="0%" stop-color="#5b7bff" />
      <stop offset="100%" stop-color="#3a5af9" />
    </linearGradient>
    <linearGradient id="chart" x1="0%" y1="0%" x2="100%" y2="100%">
      <stop offset="0%" stop-color="#85f7d2" />
      <stop offset="100%" stop-color="#44c1ff" />
    </linearGradient>
    <filter id="shadow" x="-30%" y="-30%" width="160%" height="160%">
      <feDropShadow dx="0" dy="12" stdDeviation="24" flood-color="#2a3b8f" flood-opacity="0.15" />
    </filter>
  </defs>
  <rect width="1200" height="630" fill="url(#bg)" />
  <circle cx="180" cy="160" r="90" fill="#dbe2ff" />
  <circle cx="1040" cy="140" r="120" fill="#d7f6ff" />
  <g filter="url(#shadow)">
    <rect x="260" y="150" rx="28" ry="28" width="680" height="360" fill="#ffffff" />
  </g>
  <rect x="300" y="190" rx="14" ry="14" width="380" height="220" fill="#f7f8ff" stroke="#e7e9ff" />
  <rect x="710" y="190" rx="14" ry="14" width="190" height="90" fill="url(#accent)" opacity="0.9" />
  <rect x="710" y="300" rx="14" ry="14" width="190" height="110" fill="#eef2ff" />
  <text x="320" y="230" font-family="Inter, 'Noto Sans KR', Arial, sans-serif" font-size="22" font-weight="700" fill="#11163d">
    AI Product Portfolio
  </text>
  <text x="320" y="262" font-family="Inter, 'Noto Sans KR', Arial, sans-serif" font-size="15" fill="#4d5474">
    사용자 흐름 설계 · 실험 가능한 AI 제품 구축
  </text>
  <rect x="330" y="290" rx="10" ry="10" width="140" height="42" fill="#e8ecff" />
  <rect x="490" y="290" rx="10" ry="10" width="140" height="42" fill="#e8ecff" />
  <text x="355" y="316" font-family="Inter, 'Noto Sans KR', Arial, sans-serif" font-size="14" font-weight="600" fill="#2f3b8f">
    Projects
  </text>
  <text x="515" y="316" font-family="Inter, 'Noto Sans KR', Arial, sans-serif" font-size="14" font-weight="600" fill="#2f3b8f">
    Contact
  </text>
  <g transform="translate(340 360)">
    <rect x="0" y="0" width="300" height="70" rx="14" ry="14" fill="#fff" stroke="#e7e9ff" />
    <rect x="20" y="22" width="60" height="26" rx="8" ry="8" fill="#dce3ff" />
    <rect x="95" y="22" width="110" height="26" rx="8" ry="8" fill="#dce3ff" />
    <rect x="220" y="22" width="60" height="26" rx="8" ry="8" fill="#dce3ff" />
  </g>
  <g transform="translate(740 215)">
    <rect x="0" y="0" width="120" height="50" rx="10" ry="10" fill="#ffffff" opacity="0.18" />
    <text x="10" y="30" font-family="Inter, 'Noto Sans KR', Arial, sans-serif" font-size="14" font-weight="700" fill="#ffffff">
      Launch
    </text>
  </g>
  <g transform="translate(730 320)">
    <rect x="0" y="0" width="150" height="70" rx="12" ry="12" fill="#ffffff" stroke="#dbe0ff" />
    <rect x="18" y="22" width="24" height="24" rx="6" ry="6" fill="url(#chart)" />
    <text x="52" y="40" font-family="Inter, 'Noto Sans KR', Arial, sans-serif" font-size="13" font-weight="700" fill="#1f2b64">
      CS -40%
    </text>
  </g>
  <g transform="translate(580 320)">
    <rect x="0" y="0" width="120" height="70" rx="12" ry="12" fill="#ffffff" stroke="#dbe0ff" />
    <rect x="18" y="18" width="84" height="34" rx="10" ry="10" fill="url(#chart)" />
    <text x="38" y="42" font-family="Inter, 'Noto Sans KR', Arial, sans-serif" font-size="13" font-weight="700" fill="#0f244f">
      Ship fast
    </text>
  </g>
  <g transform="translate(320 430)">
    <rect x="0" y="0" width="420" height="24" rx="12" ry="12" fill="#e8ecff" />
    <rect x="0" y="32" width="280" height="16" rx="8" ry="8" fill="#e8ecff" />
    <rect x="300" y="32" width="90" height="16" rx="8" ry="8" fill="#e8ecff" />
  </g>
  <circle cx="170" cy="520" r="90" fill="#eaf4ff" />
  <rect x="930" y="410" rx="20" ry="20" width="170" height="120" fill="#f7f9ff" stroke="#e3e7ff" />
  <text x="955" y="445" font-family="Inter, 'Noto Sans KR', Arial, sans-serif" font-size="14" font-weight="700" fill="#18224a">
    Workflows
  </text>
  <rect x="955" y="460" width="120" height="12" rx="6" ry="6" fill="#e0e6ff" />
  <rect x="955" y="480" width="140" height="12" rx="6" ry="6" fill="#e0e6ff" />
  <rect x="955" y="500" width="90" height="12" rx="6" ry="6" fill="#e0e6ff" />
</svg>
